<?xml version="1.0" encoding="UTF-8" standalone="no"?>
<!DOCTYPE svg PUBLIC "-//W3C//DTD SVG 1.1//EN" "http://www.w3.org/Graphics/SVG/1.1/DTD/svg11.dtd">
<svg width="100%" height="100%" viewBox="0 0 5552 1463" version="1.1" xmlns="http://www.w3.org/2000/svg" xmlns:xlink="http://www.w3.org/1999/xlink" xml:space="preserve" style="fill-rule:evenodd;clip-rule:evenodd;stroke-linejoin:round;stroke-miterlimit:1.41421;">
    <g id="Wordmark" transform="matrix(0.970713,0,0,0.873213,-491.578,-225.36)">
        <rect x="506.409" y="258.082" width="5718.53" height="1675.05" style="fill:none;"/>
        <clipPath id="_clip1">
            <rect x="506.409" y="258.082" width="5718.53" height="1675.05"/>
        </clipPath>
        <g clip-path="url(#_clip1)">
            <g>
                <g transform="matrix(1.03017,0,0,1.14887,24.5249,-235.805)">
                    <path d="M471.647,1891.57L973.413,1113.98L1211.09,1533.59L973.413,1891.57L471.647,1891.57Z" style="fill:rgb(134,194,50);"/>
                </g>
                <g transform="matrix(-1.03017,-1.40696e-16,1.2616e-16,-1.14887,2572.92,2429.21)">
                    <path d="M471.647,1891.57L810.965,1372.18L1058.51,1763.4L973.413,1891.57L471.647,1891.57Z" style="fill:rgb(134,194,50);"/>
                </g>
                <g transform="matrix(1.03017,0,0,1.14887,-819.808,-244.395)">
                    <path d="M2945.26,1542.39C2930.59,1624.55 2702.68,1887.92 2506.1,1898.71C2306.85,1909.64 2219.44,1832.32 2162.54,1762.14C2109.83,1697.12 1858.59,1250.72 1667.93,923.809C1484.38,609.071 1288.59,923.809 1288.59,923.809C1326.73,852.408 1441.96,435.263 1667.93,436.775C1879.45,438.19 2015.09,530.057 2296.78,1037.69C2575.76,1540.42 2509.45,1423.65 2578.48,1542.39C2600.74,1580.69 2785.34,1892.31 2945.26,1542.39" style="fill:rgb(134,194,50);"/>
                </g>
            </g>
            <g transform="matrix(1.03017,0,0,1.1452,198.08,1041.04)">
                <g transform="matrix(1,0,0,1,32,0)">
                    <path d="M2392.73,777.774L2158.93,777.774L2158.93,-684.726L2498.68,-684.726C2615.68,-684.726 2752.49,-668.322 2813.24,-612.822C2873.99,-557.322 2863.28,-424.712 2866.22,-286.099L2866.22,25.519C2866.22,126.019 2873.24,160.089 2813.24,214.839C2753.24,269.589 2617.18,260.285 2498.68,260.285L2392.73,260.285L2392.73,777.774ZM2628.51,-122.664L2628.51,-286.099C2628.51,-343.099 2637.67,-396.152 2603.17,-427.652C2584.9,-444.332 2581.71,-446.024 2564.99,-448.493C2548.66,-450.905 2528.34,-449.873 2498.68,-448.493L2392.73,-448.493L2392.73,25.519L2498.68,25.519C2632.18,25.519 2628.51,-2.664 2628.51,-122.664Z" style="fill:rgb(134,194,50);fill-rule:nonzero;"/>
                </g>
                <g transform="matrix(1,0,0,1,-36.9562,0)">
                    <path d="M3171.43,777.774L3171.43,-684.726L3406.2,-684.726L3406.2,544.964L3879.58,544.964L3879.58,777.774L3171.43,777.774Z" style="fill:rgb(134,194,50);fill-rule:nonzero;"/>
                </g>
                <g transform="matrix(1,0,0,1,146.715,1.9562)">
                    <path d="M4403.96,496.524L4640.69,496.524C4640.69,597.024 4643.69,674.649 4582.19,729.399C4520.69,784.149 4426.19,776.312 4303.19,776.312C4180.19,776.312 4089.43,784.149 4026.43,729.399C3963.43,674.649 3931.93,597.024 3931.93,496.524L3931.93,-403.476C3931.93,-503.976 3962.68,-581.601 4024.18,-636.351C4085.68,-691.101 4180.19,-686.199 4303.19,-686.199C4426.19,-686.199 4514,-691.101 4577,-636.351C4640,-581.601 4640.69,-503.976 4640.69,-403.476L4640.69,258.779L4168.66,258.779L4168.66,426.59C4168.64,552.015 4160.17,614.291 4303.19,614.414C4437.36,614.53 4393,492.79 4403.96,496.524ZM4168.66,-287.082L4168.66,22.545L4403.96,22.545L4403.96,-241.601C4404.57,-267.543 4402.83,-291.7 4402.62,-314.63C4401.91,-393.084 4413.1,-448.945 4297.17,-449.99C4154.68,-451.275 4168.66,-407.082 4168.66,-287.082" style="fill:rgb(134,194,50);fill-rule:nonzero;"/>
                </g>
                <g transform="matrix(1,0,0,1,113,0)">
                    <path d="M5737.41,777.774L5501.28,777.774L5324.98,237.671L5146.82,777.774L4910.69,777.774L5146.82,24.024L4910.69,-684.726L5146.82,-684.726L5324.98,-116.578L5501.28,-684.726L5737.41,-684.726L5514.6,24.024L5737.41,777.774Z" style="fill:rgb(134,194,50);fill-rule:nonzero;"/>
                </g>
            </g>
        </g>
    </g>
</svg>
